<?xml version="1.0" encoding="UTF-8" standalone="no"?>
<!DOCTYPE svg PUBLIC "-//W3C//DTD SVG 1.1//EN"
 "http://www.w3.org/Graphics/SVG/1.1/DTD/svg11.dtd">
<!-- Generated by graphviz version 2.28.0 (20120921.2337)
 -->
<!-- Title: time_travel_movies Pages: 1 -->
<svg width="563pt" height="310pt"
 viewBox="0.00 0.00 563.00 310.00" xmlns="http://www.w3.org/2000/svg" xmlns:xlink="http://www.w3.org/1999/xlink">
<g id="graph1" class="graph" transform="scale(1 1) rotate(0) translate(4 306)">
<title>time_travel_movies</title>
<polygon fill="white" stroke="white" points="-4,5 -4,-306 560,-306 560,5 -4,5"/>
<!-- main -->
<g id="node1" class="node"><title>main</title>
<polygon fill="none" stroke="black" points="364.24,-301.602 119.76,-301.602 119.76,-260.398 364.24,-260.398 364.24,-301.602"/>
<text text-anchor="middle" x="242" y="-283.8" font-family="Times,serif" font-size="14.00">Time travel in movies</text>
<text text-anchor="middle" x="242" y="-267" font-family="Times,serif" font-size="14.00">SPOILER ALERT: SPOILERS BELOW</text>
</g>
<!-- really -->
<g id="node2" class="node"><title>really</title>
<polygon fill="none" stroke="gray" points="269,-222 215,-222 215,-186 269,-186 269,-222"/>
<text text-anchor="middle" x="242" y="-198.4" font-family="Times,serif" font-size="14.00">Really</text>
</g>
<!-- main&#45;&gt;really -->
<g id="edge2" class="edge"><title>main&#45;&gt;really</title>
<path fill="none" stroke="black" d="M242,-260.295C242,-251.81 242,-241.743 242,-232.539"/>
<polygon fill="black" stroke="black" points="245.5,-232.277 242,-222.277 238.5,-232.277 245.5,-232.277"/>
</g>
<!-- m_changes_profession -->
<g id="node4" class="node"><title>m_changes_profession</title>
<polyline fill="none" stroke="yellow" points="114.119,-131.602 11.8814,-131.602 "/>
<path fill="none" stroke="yellow" d="M11.8814,-131.602C5.88143,-131.602 -0.118571,-125.602 -0.118571,-119.602"/>
<polyline fill="none" stroke="yellow" points="-0.118571,-119.602 -0.118571,-102.398 "/>
<path fill="none" stroke="yellow" d="M-0.118571,-102.398C-0.118571,-96.3981 5.88143,-90.3981 11.8814,-90.3981"/>
<polyline fill="none" stroke="yellow" points="11.8814,-90.3981 114.119,-90.3981 "/>
<path fill="none" stroke="yellow" d="M114.119,-90.3981C120.119,-90.3981 126.119,-96.3981 126.119,-102.398"/>
<polyline fill="none" stroke="yellow" points="126.119,-102.398 126.119,-119.602 "/>
<path fill="none" stroke="yellow" d="M126.119,-119.602C126.119,-125.602 120.119,-131.602 114.119,-131.602"/>
<text text-anchor="middle" x="63" y="-113.8" font-family="Times,serif" font-size="14.00">Ivan Vasilievich</text>
<text text-anchor="middle" x="63" y="-97" font-family="Times,serif" font-size="14.00">Changes Profession</text>
</g>
<!-- really&#45;&gt;m_changes_profession -->
<g id="edge4" class="edge"><title>really&#45;&gt;m_changes_profession</title>
<path fill="none" stroke="black" d="M214.814,-189.179C187.279,-175.181 144.124,-153.242 110.852,-136.327"/>
<polygon fill="black" stroke="black" points="112.251,-133.112 101.751,-131.7 109.079,-139.352 112.251,-133.112"/>
<text text-anchor="middle" x="177.555" y="-153.4" font-family="Times,serif" font-size="14.00">No</text>
</g>
<!-- life_on_mars -->
<g id="node5" class="node"><title>life_on_mars</title>
<polyline fill="none" stroke="blue" points="221.317,-129 156.683,-129 "/>
<path fill="none" stroke="blue" d="M156.683,-129C150.683,-129 144.683,-123 144.683,-117"/>
<polyline fill="none" stroke="blue" points="144.683,-117 144.683,-105 "/>
<path fill="none" stroke="blue" d="M144.683,-105C144.683,-99 150.683,-93 156.683,-93"/>
<polyline fill="none" stroke="blue" points="156.683,-93 221.317,-93 "/>
<path fill="none" stroke="blue" d="M221.317,-93C227.317,-93 233.317,-99 233.317,-105"/>
<polyline fill="none" stroke="blue" points="233.317,-105 233.317,-117 "/>
<path fill="none" stroke="blue" d="M233.317,-117C233.317,-123 227.317,-129 221.317,-129"/>
<text text-anchor="middle" x="189" y="-105.4" font-family="Times,serif" font-size="14.00">Life on Mars</text>
</g>
<!-- really&#45;&gt;life_on_mars -->
<g id="edge6" class="edge"><title>really&#45;&gt;life_on_mars</title>
<path fill="none" stroke="black" d="M232.031,-185.884C224.184,-172.411 213.117,-153.409 204.172,-138.05"/>
<polygon fill="black" stroke="black" points="206.981,-135.919 198.924,-129.04 200.933,-139.442 206.981,-135.919"/>
<text text-anchor="middle" x="229.555" y="-153.4" font-family="Times,serif" font-size="14.00">No</text>
</g>
<!-- source_code -->
<g id="node6" class="node"><title>source_code</title>
<polyline fill="none" stroke="pink" points="327.446,-129 264.554,-129 "/>
<path fill="none" stroke="pink" d="M264.554,-129C258.554,-129 252.554,-123 252.554,-117"/>
<polyline fill="none" stroke="pink" points="252.554,-117 252.554,-105 "/>
<path fill="none" stroke="pink" d="M252.554,-105C252.554,-99 258.554,-93 264.554,-93"/>
<polyline fill="none" stroke="pink" points="264.554,-93 327.446,-93 "/>
<path fill="none" stroke="pink" d="M327.446,-93C333.446,-93 339.446,-99 339.446,-105"/>
<polyline fill="none" stroke="pink" points="339.446,-105 339.446,-117 "/>
<path fill="none" stroke="pink" d="M339.446,-117C339.446,-123 333.446,-129 327.446,-129"/>
<text text-anchor="middle" x="296" y="-105.4" font-family="Times,serif" font-size="14.00">Source Code</text>
</g>
<!-- really&#45;&gt;source_code -->
<g id="edge8" class="edge"><title>really&#45;&gt;source_code</title>
<path fill="none" stroke="black" d="M252.157,-185.884C260.152,-172.411 271.428,-153.409 280.542,-138.05"/>
<polygon fill="black" stroke="black" points="283.795,-139.426 285.889,-129.04 277.775,-135.853 283.795,-139.426"/>
<text text-anchor="middle" x="280.555" y="-153.4" font-family="Times,serif" font-size="14.00">No</text>
</g>
<!-- only_info -->
<g id="node10" class="node"><title>only_info</title>
<polygon fill="none" stroke="black" points="555.39,-129 358.61,-129 358.61,-93 555.39,-93 555.39,-129"/>
<text text-anchor="middle" x="457" y="-105.4" font-family="Times,serif" font-size="14.00">Only information travels in time</text>
</g>
<!-- really&#45;&gt;only_info -->
<g id="edge10" class="edge"><title>really&#45;&gt;only_info</title>
<path fill="none" stroke="black" d="M269.23,-191.475C303.896,-176.802 364.438,-151.178 407.397,-132.995"/>
<polygon fill="black" stroke="black" points="408.979,-136.126 416.824,-129.005 406.251,-129.679 408.979,-136.126"/>
<text text-anchor="middle" x="372.189" y="-153.4" font-family="Times,serif" font-size="14.00">Yes</text>
</g>
<!-- single_timeline -->
<g id="node12" class="node"><title>single_timeline</title>
<polygon fill="none" stroke="black" points="452.366,-36 351.634,-36 351.634,-0 452.366,-0 452.366,-36"/>
<text text-anchor="middle" x="402" y="-12.4" font-family="Times,serif" font-size="14.00">Single timeline</text>
</g>
<!-- only_info&#45;&gt;single_timeline -->
<g id="edge12" class="edge"><title>only_info&#45;&gt;single_timeline</title>
<path fill="none" stroke="black" d="M446.655,-92.8836C438.435,-79.2834 426.811,-60.0501 417.482,-44.6164"/>
<polygon fill="black" stroke="black" points="420.467,-42.7875 412.299,-36.0397 414.476,-46.4084 420.467,-42.7875"/>
<text text-anchor="middle" x="440.555" y="-57.4" font-family="Times,serif" font-size="14.00">No</text>
</g>
<!-- future_sight -->
<g id="node13" class="node"><title>future_sight</title>
<polygon fill="none" stroke="black" points="553.459,-36 470.541,-36 470.541,-0 553.459,-0 553.459,-36"/>
<text text-anchor="middle" x="512" y="-12.4" font-family="Times,serif" font-size="14.00">Future sight</text>
</g>
<!-- only_info&#45;&gt;future_sight -->
<g id="edge14" class="edge"><title>only_info&#45;&gt;future_sight</title>
<path fill="none" stroke="black" d="M467.345,-92.8836C475.565,-79.2834 487.189,-60.0501 496.518,-44.6164"/>
<polygon fill="black" stroke="black" points="499.524,-46.4084 501.701,-36.0397 493.533,-42.7875 499.524,-46.4084"/>
<text text-anchor="middle" x="499.189" y="-57.4" font-family="Times,serif" font-size="14.00">Yes</text>
</g>
</g>
</svg>
